<svg xmlns="http://www.w3.org/2000/svg">
  <symbol id="frame-primary" viewBox="0 0 360 84">
    <path d="M14 2h334l10 10v54l-10 16H2V14Z" fill="#f3c85c" opacity=".96"/>
    <path d="M18 8h300l12 12v35l-10 15H10V16Z" fill="#fff0b3" opacity=".22"/>
    <path d="M14 2h334l10 10v54l-10 16H2V14Z" fill="none" stroke="#fff0b3" stroke-width="2" opacity=".9"/>
    <path d="M20 7h300M8 76h226" fill="none" stroke="#11111a" stroke-width="1" opacity=".56"/>
    <path d="m333 16 12 12-12 12" fill="none" stroke="#11111a" stroke-width="3" opacity=".8"/>
  </symbol>
  <symbol id="frame-utility" viewBox="0 0 360 84">
    <path d="M14 2h334l10 10v54l-10 16H2V14Z" fill="#081a2c" opacity=".9"/>
    <path d="M14 2h334l10 10v54l-10 16H2V14Z" fill="none" stroke="#78e8fa" stroke-width="1.8" opacity=".76"/>
    <path d="M9 75h110M292 8h50M17 9h48" fill="none" stroke="#78e8fa" stroke-width="1.4" opacity=".72"/>
    <path d="m333 16 12 12-12 12" fill="none" stroke="#78e8fa" stroke-width="2" opacity=".82"/>
  </symbol>
  <symbol id="frame-secondary" viewBox="0 0 360 84">
    <path d="M14 2h334l10 10v54l-10 16H2V14Z" fill="#101329" opacity=".9"/>
    <path d="M14 2h334l10 10v54l-10 16H2V14Z" fill="none" stroke="#b5f5ff" stroke-width="1.9" opacity=".86"/>
    <path d="M9 75h164M272 8h70M20 8h50" fill="none" stroke="#a77bff" stroke-width="1.3" opacity=".82"/>
    <path d="m333 16 12 12-12 12" fill="none" stroke="#b5f5ff" stroke-width="2"/>
  </symbol>
  <symbol id="frame-disabled" viewBox="0 0 360 84">
    <path d="M14 2h334l10 10v54l-10 16H2V14Z" fill="none" stroke="#8c9aae" stroke-width="1.3" stroke-dasharray="6 6" opacity=".56"/>
    <path d="m333 16 12 12-12 12" fill="none" stroke="#8c9aae" stroke-width="2" opacity=".52"/>
  </symbol>
</svg>
